<svg version="1.0" xmlns="http://www.w3.org/2000/svg" preserveAspectRatio="xMidYMid meet" viewBox="787 787 1426 1426">  <g transform="translate(0.000000,3000.000000) scale(0.100000,-0.100000)" fill="#ffffff" stroke="none"> <path d="M7870 15000 l0 -7130 7130 0 7130 0 0 7130 0 7130 -7130 0 -7130 0 0 -7130z m13420 -65 l0 -6225 -6225 0 -6225 0 0 6218 c0 3420 3 6222 7 6225 3 4 2805 7 6225 7 l6218 0 0 -6225z"/> <path d="M9680 19835 l0 -485 485 0 485 0 0 485 0 485 -485 0 -485 0 0 -485z"/> <path d="M19480 19835 l0 -485 455 0 455 0 0 485 0 485 -455 0 -455 0 0 -485z"/> <path d="M12320 18930 l0 -420 -415 0 -415 0 0 -1333 c0 -734 2 -1336 4 -1338 2 -2 416 -3 920 -1 l916 2 0 1335 0 1335 1320 0 1320 0 0 -1335 0 -1335 -485 0 -485 0 0 -420 0 -420 -420 0 -420 0 0 -905 0 -905 905 0 905 0 0 905 0 905 885 0 885 0 0 1739 c0 957 3 1746 6 1755 6 14 -39 16 -465 16 l-471 0 0 420 0 420 -2245 0 -2245 0 0 -420z"/> <path d="M14160 11350 l0 -840 905 0 905 0 0 840 0 840 -905 0 -905 0 0 -840z"/> <path d="M9680 10030 l0 -490 485 0 485 0 0 490 0 490 -485 0 -485 0 0 -490z"/> <path d="M19485 10508 c-3 -7 -4 -227 -3 -488 l3 -475 453 -3 452 -2 0 490 0 490 -450 0 c-351 0 -452 -3 -455 -12z"/> </g> </svg>