<svg xmlns="http://www.w3.org/2000/svg" shape-rendering="geometricPrecision" text-rendering="geometricPrecision" image-rendering="optimizeQuality" fill-rule="evenodd" clip-rule="evenodd" viewBox="0 0 512 429.55" fill="#C300FF"><path d="M40.69 0h430.62C493.69 0 512 18.31 512 40.69v348.18c0 22.37-18.31 40.68-40.69 40.68H40.69C18.31 429.55 0 411.24 0 388.87V40.69C0 18.31 18.31 0 40.69 0zm304.13 231.55c7.24 0 13.16 6.08 13.16 13.17v28.63c0 7.12-6.02 13.15-13.16 13.15H167.25c-7.15 0-13.16-5.92-13.16-13.16v-28.62c0-7.25 5.92-13.17 13.16-13.17h177.57zm130.23-104.69H38.78v253.05c0 6.25 5.02 11.26 11.27 11.26h413.57c6.25 0 11.26-5.01 11.26-11.26V126.86h.17zm-42.47-81.12c11.1 0 20.1 9 20.1 20.1 0 11.1-9 20.09-20.1 20.09-11.09 0-20.09-8.99-20.09-20.09s9-20.1 20.09-20.1zm-136.21 0c11.1 0 20.09 9 20.09 20.1 0 11.1-8.99 20.09-20.09 20.09s-20.1-8.99-20.1-20.09 9-20.1 20.1-20.1zm68.11 0c11.1 0 20.09 9 20.09 20.1 0 11.1-9 20.09-20.09 20.09-11.1 0-20.1-8.99-20.1-20.09s9-20.1 20.1-20.1z"/></svg>